<?xml version="1.0" standalone="no"?>
<!DOCTYPE svg PUBLIC "-//W3C//DTD SVG 20010904//EN"
 "http://www.w3.org/TR/2001/REC-SVG-20010904/DTD/svg10.dtd">
<svg version="1.0" xmlns="http://www.w3.org/2000/svg"
 width="260.000000pt" height="260.000000pt" viewBox="0 0 260.000000 260.000000"
 preserveAspectRatio="xMidYMid meet">
<metadata>
Created by potrace 1.11, written by Peter Selinger 2001-2013
</metadata>
<g transform="translate(0.000000,260.000000) scale(0.100000,-0.100000)"
fill="#000000" stroke="none">
<path d="M1289 2306 c-2 -2 -26 -7 -54 -10 -197 -26 -415 -131 -556 -268 -263
-256 -363 -629 -268 -1003 81 -317 329 -579 649 -683 131 -43 210 -54 370 -54
245 1 490 78 639 201 25 20 49 39 54 42 8 6 14 586 8 737 -1 21 -5 22 -70 22
l-70 0 0 -339 c1 -187 -2 -345 -6 -351 -9 -14 -107 -76 -158 -100 -41 -18
-152 -53 -212 -66 -73 -15 -300 -12 -385 6 -352 73 -616 331 -689 673 -24 113
-20 284 8 400 55 230 205 430 406 542 73 41 202 89 267 100 24 4 52 9 63 12
29 6 244 6 285 -1 193 -29 333 -91 441 -193 l36 -34 24 23 c13 13 35 35 48 50
l23 27 -37 32 c-122 108 -279 184 -440 215 -11 2 -31 7 -45 10 -27 7 -325 15
-331 10z"/>
</g>
</svg>
